<svg width="42" height="48" viewBox="0 0 42 48" fill="none" xmlns="http://www.w3.org/2000/svg">
<path fillRule="evenodd" clipRule="evenodd" d="M23.2482 2.09132C23.0574 2.44018 22.8612 2.78597 22.6595 3.12871C22.954 3.24291 23.2312 3.40084 23.509 3.55911C23.8072 3.72903 24.1061 3.89934 24.4278 4.01632C24.4994 3.91351 24.5866 3.76122 24.6838 3.59143C24.9444 3.13629 25.2769 2.55545 25.5751 2.46504C25.9779 2.54217 26.4116 2.78138 26.8084 3.00021C26.9345 3.06977 27.0568 3.13726 27.1733 3.19684C27.8199 3.52765 28.4606 3.86813 29.1012 4.2086C29.5985 4.47288 30.0958 4.73716 30.5959 4.9969C30.8917 5.15056 31.1943 5.2947 31.4971 5.43892C31.9425 5.65107 32.3883 5.86341 32.8135 6.10654C32.8953 6.15329 32.9425 6.1854 32.9956 6.26478C33.0758 6.3848 33.0949 6.4824 33.0588 6.62241C32.9828 6.91801 32.8037 7.22151 32.6296 7.51641C32.5309 7.68359 32.4339 7.84799 32.3582 8.00663C32.7482 8.29588 33.224 8.50932 33.6871 8.71703C33.8755 8.80149 34.0617 8.88501 34.2391 8.97229C34.3123 8.82355 34.3908 8.67314 34.4701 8.521C34.9057 7.68605 35.3683 6.79913 35.1388 5.85063C34.9853 5.21592 34.5598 4.72791 34.0066 4.39696C33.5459 4.12144 33.0547 3.88228 32.5661 3.64439C32.3439 3.53617 32.1222 3.42822 31.9041 3.31723L28.7314 1.67937C28.5443 1.58469 28.3079 1.45684 28.0499 1.31733C27.3777 0.953831 26.5591 0.511146 26.0844 0.369602C25.708 0.257301 25.2521 0.299414 24.8756 0.398266C24.0397 0.617942 23.6925 1.26442 23.3241 1.9504C23.299 1.99723 23.2737 2.04424 23.2482 2.09132Z" fill="#2C2B2B"/>
<path d="M12.7141 1.79322C13.2345 1.01843 13.9742 0.497858 14.8947 0.317573C15.0409 0.289791 15.1881 0.269825 15.3364 0.257673C15.4847 0.245522 15.6333 0.241235 15.7821 0.244811C15.9308 0.248437 16.079 0.259903 16.2265 0.279208C16.3741 0.298513 16.5202 0.325584 16.6648 0.360421C17.31 0.518438 17.9006 0.851006 18.4975 1.1325L21.5328 2.59551C21.8654 2.75492 22.3051 3.07146 22.6595 3.12872C23.2701 3.36552 23.8065 3.7904 24.4278 4.01633C26.1368 4.9167 27.8572 5.79498 29.589 6.65116L31.5565 7.61638C31.8073 7.73853 32.1318 7.84782 32.3582 8.00664C32.9068 8.41352 33.6253 8.67038 34.2391 8.9723C35.4877 9.63548 36.7422 10.2871 38.0029 10.9271C38.8912 11.3741 39.9435 11.7529 40.7047 12.4026C41.1967 12.8224 41.5825 13.3932 41.7657 14.0135C41.9756 14.7235 42.0041 15.6357 41.763 16.3425C41.3608 17.5477 40.6685 18.7057 40.0974 19.8421L37.0887 25.8426L35.0303 30.0358C34.6522 30.8117 34.2964 31.6762 33.8237 32.3978C33.5033 32.8869 32.9657 33.3295 32.4418 33.5869C31.65 33.9759 30.7345 34.0066 29.9044 33.7202C29.2921 33.509 28.7011 33.1665 28.1271 32.8692C27.2377 32.4085 26.3385 31.9694 25.4435 31.5198C24.8819 31.2378 24.3256 30.9119 23.7385 30.6866C22.9784 30.2888 22.2114 29.9046 21.4375 29.5341L15.238 26.4013C14.5189 25.9823 13.7346 25.616 12.9855 25.25C11.2182 24.2477 9.40615 23.3224 7.61897 22.3558C6.98167 22.0111 6.27365 21.7209 5.67875 21.3099C5.00723 20.846 4.61531 20.1871 4.48034 19.3865C4.4057 18.944 4.40541 18.4447 4.56088 18.0193C4.88716 17.1265 5.39871 16.2613 5.82147 15.4074L8.88848 9.35257C9.66731 7.81592 10.4337 6.27312 11.1875 4.72417C11.6396 3.80025 12.1248 2.61542 12.7141 1.79322Z" fill="#2C2B2B"/>
<path d="M12.7141 1.79322C13.2345 1.01843 13.9742 0.497858 14.8947 0.317573C15.0409 0.289791 15.1881 0.269825 15.3364 0.257673C15.4848 0.245522 15.6333 0.241235 15.7821 0.244811C15.9308 0.248437 16.079 0.259903 16.2265 0.279208C16.3741 0.298513 16.5202 0.325584 16.6649 0.360421C17.31 0.518438 17.9006 0.851006 18.4975 1.13249L21.5328 2.5955C21.8655 2.75492 22.3051 3.07146 22.6596 3.12872C23.2702 3.36552 23.8065 3.7904 24.4278 4.01633C26.1368 4.9167 27.8572 5.79497 29.589 6.65115L31.5565 7.61637C31.8073 7.73852 32.1318 7.84781 32.3582 8.00664C32.9068 8.41351 33.6253 8.67038 34.2391 8.9723C35.4877 9.63548 36.7422 10.2871 38.0029 10.9271C38.8912 11.3741 39.9435 11.7529 40.7047 12.4026C41.1967 12.8224 41.5825 13.3932 41.7657 14.0135C41.9756 14.7235 42.0041 15.6357 41.763 16.3425C41.7452 16.3447 41.7273 16.3463 41.7096 16.3489C41.4605 16.3869 37.0326 18.8831 36.4292 19.2098L34.8423 20.068C34.3354 20.3459 33.81 20.669 33.2568 20.843C31.7488 21.3171 30.3297 20.3491 29.048 19.6817L26.8506 18.5581C26.5026 18.3773 25.013 17.5432 24.7431 17.4851C24.6673 17.5976 24.5765 17.7074 24.4636 17.7844C24.2227 17.9486 23.9139 17.9947 23.6304 17.9394C23.5903 17.9317 23.5507 17.9221 23.5116 17.9106C23.4724 17.899 23.4339 17.8855 23.3961 17.8701C23.3584 17.8547 23.3215 17.8375 23.2854 17.8184C23.2493 17.7993 23.2143 17.7786 23.1803 17.756C23.1464 17.7335 23.1136 17.7094 23.0819 17.6836C23.0504 17.6578 23.0202 17.6305 22.9913 17.6017C22.9624 17.573 22.9351 17.5428 22.9093 17.5113C22.8834 17.4799 22.8592 17.4472 22.8366 17.4133C22.6632 17.1484 22.6368 16.8971 22.7012 16.594C22.6751 16.5521 22.6508 16.5222 22.6073 16.497C22.0041 16.1469 21.3412 15.8608 20.7167 15.5475C19.8074 15.0913 18.9116 14.6109 18.0054 14.1492C17.1631 13.7201 15.9671 13.2663 15.3246 12.5881C15.154 12.4079 15.036 12.0396 14.9587 11.8039C14.7994 11.3181 14.6788 10.8143 14.5417 10.3215L13.4944 6.40751C13.2164 5.38298 12.7284 4.02544 12.5766 3.02781C12.5129 2.60903 12.7096 2.25529 12.7144 1.85408C12.7146 1.83379 12.7142 1.81351 12.7141 1.79322Z" fill="#4B4B4B"/>
<path d="M22.7011 16.594L22.7188 16.5625C23.0705 15.9272 23.3924 14.6067 24.138 14.3878C24.4373 14.2999 24.7824 14.3304 25.0565 14.481C25.0884 14.4987 25.1194 14.518 25.1494 14.5388C25.1793 14.5596 25.2082 14.5818 25.236 14.6055C25.2637 14.6291 25.2902 14.6541 25.3155 14.6804C25.3407 14.7068 25.3646 14.7343 25.3871 14.763C25.4096 14.7916 25.4305 14.8214 25.4501 14.8521C25.4695 14.8829 25.4875 14.9146 25.5038 14.9472C25.5202 14.9797 25.5348 15.013 25.5478 15.047C25.5608 15.081 25.572 15.1156 25.5816 15.1507C25.7605 15.804 25.0435 16.8949 24.7431 17.4851C24.6673 17.5976 24.5765 17.7074 24.4636 17.7844C24.2227 17.9486 23.9139 17.9947 23.6304 17.9394C23.5903 17.9318 23.5507 17.9221 23.5115 17.9106C23.4724 17.899 23.4339 17.8855 23.3961 17.8701C23.3584 17.8547 23.3215 17.8375 23.2854 17.8184C23.2493 17.7994 23.2143 17.7786 23.1803 17.756C23.1463 17.7335 23.1135 17.7094 23.0819 17.6836C23.0504 17.6578 23.0202 17.6305 22.9913 17.6018C22.9624 17.573 22.9351 17.5429 22.9093 17.5114C22.8834 17.4799 22.8592 17.4472 22.8366 17.4133C22.6632 17.1484 22.6368 16.8971 22.7011 16.594Z" fill="white"/>
<path d="M20.4684 37.7122C18.4644 41.1776 6.28465 47.7493 6.28465 47.7493C6.28465 47.7493 5.89516 33.9323 7.89909 30.4669C9.90302 27.0016 14.3413 25.8143 17.8122 27.815C21.2831 29.8157 22.4723 34.2469 20.4684 37.7122Z" fill="#F15B29"/>
<path d="M18.5819 33.2947C17.64 34.9235 11.9152 38.0124 11.9152 38.0124C11.9152 38.0124 11.7322 31.5181 12.6741 29.8893C13.616 28.2605 15.702 27.7024 17.3334 28.6428C18.9649 29.5832 19.5238 31.6659 18.5819 33.2947Z" fill="#FDBE4C"/>
</svg>
