<svg width="18" height="19" viewBox="0 0 18 19" fill="none" xmlns="http://www.w3.org/2000/svg">
<path fill-rule="evenodd" clip-rule="evenodd" d="M10.2327 1.02191C9.77445 1.02191 9.33497 1.20395 9.01093 1.52799L5.40645 5.13246C4.68015 5.85864 4.2469 6.29182 3.93351 6.80322C3.65594 7.25618 3.45139 7.75 3.32738 8.26656C3.18736 8.84977 3.18741 9.46243 3.1875 10.4895L3.1875 13.0085C3.18749 13.6181 3.18749 14.1098 3.22002 14.508C3.25352 14.918 3.32429 15.2781 3.49404 15.6113C3.76369 16.1405 4.19395 16.5707 4.72315 16.8404C5.05632 17.0101 5.41642 17.0809 5.8264 17.1144C6.22458 17.1469 6.71628 17.1469 7.32591 17.1469H12.6835C13.2129 17.1469 13.6418 17.1469 13.9926 17.1202C14.3553 17.0926 14.6757 17.0343 14.9805 16.8962C15.4681 16.6752 15.8826 16.3196 16.1752 15.8712C16.358 15.591 16.4644 15.2832 16.5468 14.929C16.6265 14.5863 16.6917 14.1624 16.7722 13.6392L17.1719 11.0417C17.2784 10.349 17.3639 9.79327 17.394 9.34225C17.4248 8.88028 17.4029 8.46937 17.2552 8.08211C17.0226 7.4722 16.585 6.9622 16.0176 6.63954C15.6573 6.43466 15.2545 6.35056 14.7932 6.31076C14.3429 6.2719 13.7806 6.27191 13.0798 6.27191H12.1979C11.8611 6.27191 11.6363 6.27162 11.4669 6.26037C11.2972 6.24911 11.2403 6.22925 11.2219 6.22082C11.0264 6.13129 10.8991 5.93818 10.8938 5.72326C10.8933 5.70302 10.8975 5.64285 10.9539 5.48246C11.0103 5.32233 11.0986 5.11561 11.2313 4.80599L11.8208 3.43039C12.3095 2.29024 11.4732 1.02191 10.2327 1.02191ZM9.80643 2.32348C9.91948 2.21043 10.0728 2.14691 10.2327 2.14691C10.6655 2.14691 10.9573 2.58943 10.7868 2.98723L10.1898 4.38022C10.0665 4.66785 9.96313 4.90912 9.89282 5.10877C9.82119 5.31217 9.76357 5.52589 9.76912 5.75096C9.785 6.39573 10.167 6.97505 10.7534 7.24363C10.9581 7.33739 11.1772 7.36862 11.3924 7.3829C11.6036 7.39692 11.866 7.39692 12.179 7.39691H13.0538C13.7866 7.39691 14.3003 7.3974 14.6965 7.43159C15.0874 7.46532 15.3046 7.52826 15.4615 7.61749C15.802 7.81109 16.0645 8.11708 16.2041 8.48303C16.2684 8.65169 16.2976 8.87595 16.2715 9.2674C16.245 9.66425 16.1674 10.172 16.056 10.8963L15.6637 13.4463C15.579 13.9964 15.52 14.3779 15.4511 14.674C15.3838 14.9632 15.3157 15.1298 15.233 15.2565C15.0574 15.5255 14.8088 15.7389 14.5162 15.8715C14.3783 15.9339 14.2033 15.9759 13.9073 15.9985C13.6042 16.0215 13.2181 16.0219 12.6615 16.0219H7.35C6.71066 16.0219 6.26498 16.0215 5.91801 15.9931C5.5776 15.9653 5.38203 15.9135 5.23389 15.838C4.91637 15.6762 4.65821 15.418 4.49643 15.1005C4.42095 14.9524 4.3691 14.7568 4.34129 14.4164C4.31294 14.0694 4.3125 13.6238 4.3125 12.9844V10.5667C4.3125 9.43932 4.31612 8.96728 4.42129 8.52918C4.51775 8.12741 4.67684 7.74333 4.89273 7.39104C5.12814 7.00688 5.45936 6.67054 6.25658 5.87333L9.80643 2.32348Z" fill="#0E0E0E"/>
<path d="M2.0625 6.83441C2.0625 6.52375 1.81066 6.27191 1.5 6.27191C1.18934 6.27191 0.9375 6.52375 0.9375 6.83441V15.8344C0.9375 16.1451 1.18934 16.3969 1.5 16.3969C1.81066 16.3969 2.0625 16.1451 2.0625 15.8344L2.0625 6.83441Z" fill="#0E0E0E"/>
</svg>
