<svg width="24" height="24" viewBox="0 0 24 24" fill="none" xmlns="http://www.w3.org/2000/svg">
<path d="M23.5 11.8344C23.5 18.0877 18.3578 23.1688 12 23.1688C5.64215 23.1688 0.5 18.0877 0.5 11.8344C0.5 5.58111 5.64215 0.5 12 0.5C18.3578 0.5 23.5 5.58111 23.5 11.8344Z" fill="url(#paint0_linear_1_1509)" stroke="white"/>
<path d="M7.24333 10.3999H8.30052C8.67988 10.3999 8.9876 10.7036 8.9876 11.0775V15.5826C8.9876 15.9567 8.67963 16.2602 8.30052 16.2602H7.24333C6.86397 16.2602 6.55624 15.9565 6.55624 15.5826V11.0775C6.55624 10.7034 6.86422 10.3999 7.24333 10.3999Z" fill="white"/>
<path d="M16.9923 11.4047H16.8001C17.3171 11.4047 17.7362 11.016 17.7362 10.5364C17.7362 10.0567 17.3171 9.66796 16.8001 9.66796H13.4343C13.4114 9.63 13.3992 9.58554 13.4022 9.53316C13.4277 9.07782 14.0432 8.33606 14.3253 7.7291C14.6075 7.12214 14.3509 6.29604 14.0946 5.63838C13.838 4.98072 13.2226 4.87283 12.7353 5.12585C12.4183 5.29045 12.4724 5.82004 12.4946 6.1079C12.5233 6.48418 12.6196 6.87489 12.4071 7.2185C12.181 7.58397 11.8345 7.87447 11.518 8.16065C11.0934 8.54463 10.6677 8.94398 10.3361 9.41134C10.1085 9.73236 9.76353 10.1728 9.75939 10.5801C9.75769 10.7404 9.77157 10.9023 9.77157 11.0635V15.4891C9.77157 15.9094 10.0998 16.2503 10.5047 16.2503H11.5924C11.6306 16.2563 11.6698 16.2604 11.7098 16.2604H16.2745C16.6853 16.2604 17.0181 15.932 17.0181 15.5271V15.3752C17.0181 14.9701 16.6851 14.6419 16.2745 14.6419H16.7104C17.1212 14.6419 17.454 14.3134 17.454 13.9085V13.7567C17.454 13.3515 17.121 13.0233 16.7104 13.0233H16.9926C17.4033 13.0233 17.7362 12.6948 17.7362 12.29V12.1383C17.7362 11.7332 17.4031 11.405 16.9926 11.405L16.9923 11.4047Z" fill="white"/>
<defs>
<linearGradient id="paint0_linear_1_1509" x1="12" y1="23.6691" x2="12" y2="0" gradientUnits="userSpaceOnUse">
<stop offset="0.01" stop-color="#1A62F4"/>
<stop offset="0.82" stop-color="#27AAE1"/>
<stop offset="0.85" stop-color="#36AEE3"/>
<stop offset="0.9" stop-color="#5FB8EA"/>
<stop offset="0.98" stop-color="#A1C9F5"/>
<stop offset="1" stop-color="#B4CEF9"/>
</linearGradient>
</defs>
</svg>
