<svg width="24" height="24" viewBox="0 0 24 24" fill="none" xmlns="http://www.w3.org/2000/svg">
<path d="M23.5 11.8344C23.5 18.0877 18.3578 23.1688 12 23.1688C5.64215 23.1688 0.5 18.0877 0.5 11.8344C0.5 5.58111 5.64215 0.5 12 0.5C18.3578 0.5 23.5 5.58111 23.5 11.8344Z" fill="url(#paint0_linear_1_1519)" stroke="white"/>
<path d="M19.5154 13.3035C19.332 17.1286 16.0371 20.1752 12 20.1752C7.96283 20.1752 4.66798 17.1283 4.48456 13.3035H19.5154Z" fill="#231F20"/>
<path d="M17.2526 18.1277C15.8966 19.3948 14.0434 20.1754 11.9999 20.1754C9.95646 20.1754 8.10324 19.3948 6.74725 18.1277C7.54674 16.5341 9.59672 15.4005 11.9999 15.4005C14.4031 15.4005 16.4531 16.5341 17.2526 18.1277Z" fill="#EA2A5D"/>
<path d="M5.44809 10.1052C5.29282 10.1052 5.14377 10.0184 5.07354 9.87051C4.97664 9.66683 5.06584 9.42427 5.27267 9.32871L7.31169 8.38712L5.27 7.42654C5.06406 7.32952 4.97664 7.08638 5.07502 6.88327C5.1734 6.68017 5.41994 6.59396 5.62589 6.69098L8.45669 8.0227C8.601 8.0905 8.69257 8.23428 8.69197 8.3918C8.69138 8.54931 8.59863 8.69251 8.45402 8.75943L5.62322 10.0666C5.56663 10.0926 5.50706 10.1052 5.44839 10.1052H5.44809Z" fill="#231F20"/>
<path d="M18.551 10.1049C18.4923 10.1049 18.4328 10.0927 18.3762 10.0664L15.5454 8.75918C15.4008 8.69226 15.308 8.54935 15.3074 8.39155C15.3068 8.23403 15.3984 8.09025 15.5427 8.02245L18.3735 6.69073C18.5795 6.594 18.826 6.67992 18.9244 6.88302C19.0225 7.08613 18.9354 7.32927 18.7294 7.42629L16.6877 8.38687L18.7267 9.32846C18.9333 9.42402 19.0225 9.66658 18.9256 9.87026C18.8553 10.0181 18.7066 10.1049 18.551 10.1049Z" fill="#231F20"/>
<defs>
<linearGradient id="paint0_linear_1_1519" x1="12" y1="-32.2421" x2="12" y2="-32.2421" gradientUnits="userSpaceOnUse">
<stop stop-color="#FF930D"/>
<stop offset="0.17" stop-color="#FFA21B"/>
<stop offset="0.4" stop-color="#FFBE36"/>
<stop offset="0.6" stop-color="#FFD55B"/>
<stop offset="0.73" stop-color="#FFD55B"/>
<stop offset="0.88" stop-color="#FFE995"/>
<stop offset="0.96" stop-color="#FEF7C2"/>
</linearGradient>
</defs>
</svg>
