<svg width="18" height="19" viewBox="0 0 18 19" fill="none" xmlns="http://www.w3.org/2000/svg">
<path d="M2.0625 8.70941C2.0625 5.49926 4.66484 2.89691 7.875 2.89691C9.95447 2.89691 11.7794 3.98851 12.8074 5.63262C12.9721 5.89603 13.3191 5.97605 13.5825 5.81136C13.846 5.64666 13.926 5.29962 13.7613 5.0362C12.5364 3.07708 10.3583 1.77191 7.875 1.77191C4.04352 1.77191 0.9375 4.87794 0.9375 8.70941C0.9375 9.7484 1.16648 10.7354 1.577 11.6216L1.58359 11.6359C1.89617 12.3106 2.05753 12.6589 1.91853 13.1426C1.89161 13.2363 1.85084 13.3246 1.79072 13.4549C1.77244 13.4945 1.75236 13.538 1.73035 13.5867C1.64958 13.7654 1.54211 14.0181 1.51866 14.3036C1.45467 15.0827 2.14077 15.714 2.91184 15.5855C3.33193 15.5155 3.69487 15.3279 3.94938 15.1962C4.01005 15.1649 4.06463 15.1366 4.11228 15.114C4.3736 14.9898 4.57992 14.9299 4.89375 15.0037C4.89375 15.0037 4.8952 15.004 4.89841 15.0049L4.91253 15.0088C4.92493 15.0125 4.94134 15.0175 4.96259 15.0243C5.00536 15.038 5.06168 15.057 5.13489 15.0824C5.2815 15.1333 5.48343 15.2055 5.75792 15.3037C6.03821 15.404 6.32743 15.4822 6.63009 15.5385C6.93552 15.5953 7.22915 15.3937 7.28594 15.0883C7.34273 14.7829 7.14117 14.4892 6.83575 14.4324C6.59136 14.387 6.36012 14.3243 6.13683 14.2444L6.04545 14.2117C5.57931 14.0449 5.28798 13.9407 5.15129 13.9085C4.49744 13.7548 4.01922 13.9126 3.62939 14.0979C3.52164 14.1491 3.42947 14.1962 3.34626 14.2387C3.11779 14.3554 2.95693 14.4375 2.72696 14.4758C2.67877 14.4839 2.63589 14.4444 2.63989 14.3957C2.64616 14.3193 2.67869 14.22 2.75547 14.0501C2.7666 14.0255 2.77938 13.998 2.79325 13.9682C2.85804 13.829 2.94642 13.639 2.99977 13.4533C3.25751 12.5564 2.92421 11.8455 2.65219 11.2652C2.63371 11.2258 2.61549 11.187 2.59779 11.1487C2.25446 10.4076 2.0625 9.58165 2.0625 8.70941Z" fill="#0E0E0E"/>
<path fillRule="evenodd" clipRule="evenodd" d="M12.75 7.02191C9.95406 7.02191 7.6875 9.28847 7.6875 12.0844C7.6875 14.8804 9.95406 17.1469 12.75 17.1469C13.3187 17.1469 13.8235 17.0655 14.3001 16.895C14.4942 16.8256 14.6359 16.7749 14.7384 16.7393C14.7896 16.7215 14.828 16.7086 14.8563 16.6995C14.8873 16.6896 14.8961 16.6876 14.8924 16.6884C15.0638 16.6481 15.1695 16.676 15.335 16.7547C15.3622 16.7677 15.3956 16.785 15.4343 16.8051C15.6112 16.897 15.9 17.047 16.2262 17.1013C16.8768 17.2097 17.4557 16.6771 17.4017 16.0197C17.3826 15.7874 17.2958 15.5865 17.2382 15.4591C17.2202 15.4194 17.2047 15.3857 17.1912 15.3564C17.1512 15.2696 17.1288 15.2211 17.1136 15.168C17.0347 14.8934 17.1164 14.7047 17.3458 14.2096C17.6454 13.5628 17.8125 12.8423 17.8125 12.0844C17.8125 9.28847 15.5459 7.02191 12.75 7.02191ZM8.8125 12.0844C8.8125 9.90979 10.5754 8.14691 12.75 8.14691C14.9246 8.14691 16.6875 9.90979 16.6875 12.0844C16.6875 12.6756 16.5574 13.2349 16.325 13.7368C16.3121 13.7646 16.2986 13.7932 16.2848 13.8226C16.0938 14.2285 15.8326 14.7838 16.0323 15.4788C16.074 15.6239 16.1439 15.7738 16.1892 15.8709C16.1982 15.8902 16.2064 15.9078 16.213 15.9225L16.2188 15.9354C16.1649 15.9127 16.1088 15.884 16.0389 15.8483C15.9781 15.8173 15.9069 15.7809 15.8179 15.7386C15.5238 15.5989 15.1463 15.473 14.6347 15.5933C14.5287 15.6183 14.3151 15.6947 13.999 15.8079L13.9212 15.8357C13.5813 15.9573 13.2067 16.0219 12.75 16.0219C10.5754 16.0219 8.8125 14.259 8.8125 12.0844Z" fill="#0E0E0E"/>
</svg>
